HIERARCHY
ROOT Hips
{
	OFFSET 0.000000 88.474243 0.000000
	CHANNELS 6 Xposition Yposition Zposition Zrotation Yrotation Xrotation 
	JOINT Hips_Spine
	{
		OFFSET 0.000000 0.000000 0.000000
		CHANNELS 3 Zrotation Yrotation Xrotation
		JOINT Spine
		{
			OFFSET 0.005100 8.711998 -0.691000
			CHANNELS 3 Zrotation Yrotation Xrotation
			JOINT Spine1
			{
				OFFSET -0.009200 8.660301 -1.275000
				CHANNELS 3 Zrotation Yrotation Xrotation
				JOINT Spine2
				{
					OFFSET 0.006300 9.852501 -1.857000
					CHANNELS 3 Zrotation Yrotation Xrotation
					JOINT Spine2_Neck
					{
						OFFSET 0.000000 0.000000 0.000000
						CHANNELS 3 Zrotation Yrotation Xrotation
						JOINT Neck
						{
							OFFSET 0.016300 11.420799 -0.263300
							CHANNELS 3 Zrotation Yrotation Xrotation
							End Site #name: Head
							{
								OFFSET -0.019200 9.262405 2.362500
							}
						}
					}
					JOINT Spine2_LeftShoulder
					{
						OFFSET 0.000000 0.000000 0.000000
						CHANNELS 3 Zrotation Yrotation Xrotation
						JOINT LeftShoulder
						{
							OFFSET 5.616900 6.732201 -0.345700
							CHANNELS 3 Zrotation Yrotation Xrotation
							JOINT LeftArm
							{
								OFFSET 10.664888 -0.183372 -2.440700
								CHANNELS 3 Zrotation Yrotation Xrotation
								JOINT LeftForeArm
								{
									OFFSET 27.459126 0.000000 0.000000
									CHANNELS 3 Zrotation Yrotation Xrotation
									End Site #name: LeftHand
									{
										OFFSET 21.306858 0.000000 0.000000
									}
								}
							}
						}
					}
					JOINT Spine2_RightShoulder
					{
						OFFSET 0.000000 0.000000 0.000000
						CHANNELS 3 Zrotation Yrotation Xrotation
						JOINT RightShoulder
						{
							OFFSET -5.580300 6.737503 -0.344400
							CHANNELS 3 Zrotation Yrotation Xrotation
							JOINT RightArm
							{
								OFFSET -10.679335 -0.188484 -2.383900
								CHANNELS 3 Zrotation Yrotation Xrotation
								JOINT RightForeArm
								{
									OFFSET -27.503529 0.000000 0.000000
									CHANNELS 3 Zrotation Yrotation Xrotation
									End Site #name: RightHand
									{
										OFFSET -21.306808 0.000000 0.000000
									}
								}
							}
						}
					}
				}
			}
		}
	}
	JOINT Hips_LeftUpLeg
	{
		OFFSET 0.000000 0.000000 0.000000
		CHANNELS 3 Zrotation Yrotation Xrotation
		JOINT LeftUpLeg
		{
			OFFSET 6.857700 -6.739601 0.312100
			CHANNELS 3 Zrotation Yrotation Xrotation
			JOINT LeftLeg
			{
				OFFSET -0.367590 -34.731552 -4.572400
				CHANNELS 3 Zrotation Yrotation Xrotation
				End Site #name: LeftFoot
				{
					OFFSET 0.367590 -34.656704 -6.067400
				}
			}
		}
	}
	JOINT Hips_RightUpLeg
	{
		OFFSET 0.000000 0.000000 0.000000
		CHANNELS 3 Zrotation Yrotation Xrotation
		JOINT RightUpLeg
		{
			OFFSET -6.876100 -6.733299 0.301000
			CHANNELS 3 Zrotation Yrotation Xrotation
			JOINT RightLeg
			{
				OFFSET 0.347353 -34.795158 -4.515900
				CHANNELS 3 Zrotation Yrotation Xrotation
				End Site #name: RightFoot
				{
					OFFSET -0.347353 -34.589367 -6.070300
				}
			}
		}
	}
}
MOTION
Frames: 9
Frame Time: 0.041667
0.031896 0.004140 -0.034691 -4.393084 -1.203927 -6.338366 0.000000 -0.000000 0.000000 0.853440 1.396113 17.738300 1.086326 0.728996 3.220969 0.000000 0.000000 0.000000 1.116713 0.813016 2.089191 0.421025 -0.297962 6.672414 0.923617 0.384032 3.421435 -10.689593 -7.356961 1.749130 -57.256631 1.356542 3.832824 0.501098 -22.669027 -0.326896 1.502439 0.522716 3.891620 7.797149 -3.726860 0.843487 71.019198 6.796691 38.567882 -0.292977 15.922046 0.710494 0.000000 0.000000 0.000000 7.555108 9.913340 -72.170920 5.545194 -4.823515 73.074401 0.000000 0.000000 0.000000 -3.923381 -9.099667 -60.034345 -0.648295 -0.920476 69.450242 
0.059546 0.025786 -0.111545 -4.756912 -0.722488 -5.230477 0.000000 -0.000000 0.000000 1.865105 0.897520 15.780734 0.987787 0.291912 3.146351 0.000000 0.000000 0.000000 0.860235 0.485065 2.773306 0.721599 -0.678520 6.564376 1.095587 0.538044 3.260088 -8.515695 -6.824490 1.144996 -60.434437 -2.759428 0.197381 0.062839 -26.701436 0.952468 0.781665 0.406976 3.235638 7.855923 -3.536516 0.520225 71.641510 10.039707 29.668628 -0.041264 24.094176 0.429663 0.000000 0.000000 -0.000000 7.438591 9.869524 -73.280170 6.071390 -4.239842 72.125723 0.000000 0.000000 0.000000 -3.155615 -9.107807 -63.879916 -0.037045 -0.563181 69.520599 
0.060575 0.012465 -0.168481 -4.680566 0.331148 -4.710675 0.000000 0.000000 0.000000 3.317999 0.929376 16.411521 0.825757 0.395225 2.862309 0.000000 0.000000 0.000000 0.879907 0.386935 2.517675 1.506299 -0.165315 6.796028 0.961577 0.492567 2.906129 -8.670595 -7.912997 1.280554 -59.528891 0.764446 1.313894 -0.012435 -26.472518 0.857891 0.735184 0.511709 2.909061 7.108767 -2.844590 0.520368 70.843657 12.224082 27.856361 0.053911 29.028240 0.090257 -0.000000 0.000000 0.000000 7.395251 9.390437 -73.985800 5.596831 -4.274727 71.460012 0.000000 0.000000 0.000000 -3.784944 -8.764653 -64.953650 0.007707 -0.586118 70.647931 
0.061926 -0.003208 -0.223841 -4.796330 0.752767 -4.592086 0.000000 0.000000 0.000000 3.519052 1.329062 16.531541 0.788102 0.383027 2.926193 0.000000 0.000000 0.000000 0.935552 0.423361 2.386903 1.437175 0.036295 7.396838 0.944635 0.433896 2.724299 -8.314068 -8.484534 1.410572 -60.262146 -0.635937 -1.069982 -0.043049 -26.880632 0.883421 0.805567 0.489634 2.940647 6.952373 -2.835173 0.538377 71.370452 14.453403 26.204523 -0.001433 34.502049 -0.090356 -0.000000 0.000000 0.000000 7.358228 9.282797 -73.959613 5.568280 -4.059436 71.257114 0.000000 0.000000 0.000000 -3.814081 -8.883569 -65.814878 0.458107 -0.554797 71.723253 
0.072267 -0.011756 -0.274912 -4.904501 0.967736 -4.600283 0.000000 0.000000 0.000000 3.650875 1.630305 17.039069 0.774215 0.365607 3.072606 0.000000 0.000000 0.000000 0.936674 0.435402 2.414376 1.508532 0.135564 8.012809 0.926728 0.388643 2.695357 -8.178634 -8.423299 1.445641 -60.518462 -2.237212 -2.368530 -0.056492 -28.075072 0.920542 0.817939 0.477981 3.082515 7.377313 -3.083568 0.523839 71.380876 16.085821 24.787633 -0.075687 37.939789 -0.199907 -0.000000 0.000000 0.000000 7.395571 9.417908 -73.856078 5.570509 -3.768567 71.223416 0.000000 0.000000 0.000000 -3.935089 -8.796377 -66.269495 0.678004 -0.628747 72.385958 
0.087922 -0.013797 -0.321143 -4.982425 0.943973 -4.668345 0.000000 0.000000 0.000000 3.688896 1.680294 17.492415 0.756117 0.345627 3.133209 0.000000 0.000000 0.000000 0.902862 0.413698 2.464485 1.565466 0.167856 8.329905 0.893734 0.353814 2.727661 -8.030709 -8.077678 1.390524 -60.607591 -3.249794 -1.735869 -0.060453 -29.167938 0.907459 0.777803 0.472466 3.158780 7.887007 -3.105607 0.568362 71.057136 17.251343 23.430055 -0.114004 39.628302 -0.252253 -0.000000 0.000000 -0.000000 7.481699 9.689709 -73.788765 5.621415 -3.690222 71.375047 0.000000 0.000000 0.000000 -4.075808 -8.659633 -66.236313 0.777186 -0.637484 72.578110 
0.106581 -0.011142 -0.364413 -5.021604 0.857223 -4.720159 0.000000 0.000000 0.000000 3.654829 1.658145 17.841658 0.735403 0.336824 3.162302 0.000000 0.000000 0.000000 0.868877 0.398700 2.491385 1.589793 0.160903 8.420340 0.865542 0.346091 2.742082 -7.848710 -7.575591 1.270352 -60.437280 -3.943188 -0.675677 -0.063552 -30.200588 0.918620 0.750437 0.466567 3.188236 8.253869 -3.083906 0.625158 70.744119 17.724824 22.704581 -0.117076 39.909379 -0.256071 -0.000000 0.000000 -0.000000 7.570730 9.820851 -73.744262 5.667867 -3.692945 71.508706 0.000000 0.000000 0.000000 -4.179259 -8.568585 -65.995497 0.804171 -0.618281 72.456131 
0.124656 -0.007252 -0.406063 -5.039076 0.809855 -4.743965 0.000000 0.000000 0.000000 3.601697 1.644729 17.989619 0.715878 0.331175 3.191913 0.000000 0.000000 0.000000 0.849212 0.390032 2.533804 1.591031 0.148504 8.550197 0.855123 0.348907 2.789220 -7.742570 -7.232842 1.189529 -60.071986 -4.435261 0.350709 -0.072410 -31.092264 0.936297 0.730762 0.472463 3.206300 8.310982 -3.032103 0.637942 70.575123 17.780647 22.330269 -0.097332 39.569533 -0.240177 -0.000000 0.000000 -0.000000 7.622938 9.837497 -73.776837 5.664229 -3.715166 71.634844 0.000000 0.000000 0.000000 -4.252740 -8.504269 -65.729460 0.794686 -0.607316 72.240661 
0.137851 -0.004203 -0.447059 -5.048413 0.805927 -4.741882 0.000000 0.000000 0.000000 3.554989 1.624626 18.037592 0.710112 0.329434 3.231806 0.000000 0.000000 0.000000 0.843778 0.388567 2.593328 1.581219 0.121932 8.702265 0.850216 0.357441 2.843596 -7.606060 -6.972545 1.124449 -59.822922 -4.508806 1.254631 -0.091182 -31.843242 0.963275 0.718160 0.479650 3.236278 8.240692 -2.916465 0.659519 70.582005 17.727734 22.127158 -0.083105 39.279235 -0.212166 -0.000000 0.000000 0.000000 7.644649 9.824403 -73.839454 5.626651 -3.752502 71.731759 0.000000 0.000000 0.000000 -4.292548 -8.465689 -65.590548 0.787552 -0.596321 72.095138 
